<mxfile host="Electron" modified="2024-01-24T09:46:39.237Z" agent="Mozilla/5.0 (Macintosh; Intel Mac OS X 10_15_7) AppleWebKit/537.36 (KHTML, like Gecko) draw.io/22.1.18 Chrome/120.0.6099.199 Electron/28.1.2 Safari/537.36" etag="yp4jwbOBaiwjfkavDgGm" version="22.1.18" type="device" pages="2">
  <diagram name="main" id="4NC5C235ceEbJDFCXTHk">
    <mxGraphModel dx="1114" dy="670" grid="1" gridSize="10" guides="1" tooltips="1" connect="1" arrows="1" fold="1" page="1" pageScale="1" pageWidth="850" pageHeight="1100" math="0" shadow="0">
      <root>
        <mxCell id="0" />
        <mxCell id="1" parent="0" />
        <mxCell id="vt2uHKQi6QLiGVlnmY2d-5" value="Game" style="rounded=1;whiteSpace=wrap;html=1;sketch=0;container=1;recursiveResize=0;verticalAlign=top;arcSize=6;fontStyle=0;autosize=0;points=[];absoluteArcSize=1;shadow=1;strokeColor=#001DBC;fillColor=#0050ef;fontColor=#ffffff;fontFamily=Helvetica;fontSize=11;" parent="1" vertex="1">
          <mxGeometry x="220" y="110" width="140" height="125" as="geometry">
            <mxRectangle x="-98" y="-1230" width="99" height="26" as="alternateBounds" />
          </mxGeometry>
        </mxCell>
        <mxCell id="vt2uHKQi6QLiGVlnmY2d-6" value="cold start" style="rounded=1;whiteSpace=wrap;html=1;sketch=0;points=[[0,0.5,0,0,0],[1,0.5,0,0,0]];arcSize=50;fontFamily=Helvetica;fontSize=11;fontColor=default;" parent="vt2uHKQi6QLiGVlnmY2d-5" vertex="1">
          <mxGeometry x="-18.75" y="40" width="66" height="25" as="geometry" />
        </mxCell>
        <mxCell id="D3qdG0gJSyTldHNnm74g-3" value="" style="rounded=1;whiteSpace=wrap;html=1;sketch=0;points=[[0,0.5,0,0,0],[1,0.5,0,0,0]];fillColor=#1ba1e2;fontColor=#ffffff;strokeColor=#006EAF;arcSize=50;fontFamily=Helvetica;fontSize=11;" parent="vt2uHKQi6QLiGVlnmY2d-5" vertex="1">
          <mxGeometry x="90" y="40" width="66" height="25" as="geometry" />
        </mxCell>
        <mxCell id="vt2uHKQi6QLiGVlnmY2d-9" value="input" style="rhombus;whiteSpace=wrap;html=1;rounded=1;fontStyle=1;glass=0;sketch=0;fontSize=12;points=[[0,0.5,0,0,0],[0.5,0,0,0,0],[0.5,1,0,0,0],[1,0.5,0,0,0]];shadow=1;fontFamily=Helvetica;fontColor=default;" parent="1" vertex="1">
          <mxGeometry x="40" y="120" width="80" height="80" as="geometry" />
        </mxCell>
        <mxCell id="vt2uHKQi6QLiGVlnmY2d-10" style="edgeStyle=orthogonalEdgeStyle;rounded=1;orthogonalLoop=1;jettySize=auto;html=1;exitX=1;exitY=0.5;exitDx=0;exitDy=0;exitPerimeter=0;entryX=0;entryY=0.5;entryDx=0;entryDy=0;entryPerimeter=0;curved=0;strokeWidth=2;" parent="1" source="vt2uHKQi6QLiGVlnmY2d-9" target="vt2uHKQi6QLiGVlnmY2d-6" edge="1">
          <mxGeometry relative="1" as="geometry" />
        </mxCell>
      </root>
    </mxGraphModel>
  </diagram>
  <diagram id="SwbNnDgOkUqeW8t3A8qw" name="Game">
    <mxGraphModel dx="1114" dy="670" grid="1" gridSize="10" guides="1" tooltips="1" connect="1" arrows="1" fold="1" page="1" pageScale="1" pageWidth="850" pageHeight="1100" math="0" shadow="0">
      <root>
        <mxCell id="0" />
        <mxCell id="1" parent="0" />
        <mxCell id="yTE4_9pnOl3mThRp0SYr-1" value="cold start" style="rhombus;whiteSpace=wrap;html=1;rounded=1;fontStyle=1;glass=0;sketch=0;fontSize=12;points=[[0,0.5,0,0,0],[0.5,0,0,0,0],[0.5,1,0,0,0],[1,0.5,0,0,0]];shadow=1;fontFamily=Helvetica;fontColor=default;" parent="1" vertex="1">
          <mxGeometry x="40" y="295" width="80" height="80" as="geometry" />
        </mxCell>
        <mxCell id="yTE4_9pnOl3mThRp0SYr-2" value="" style="rhombus;whiteSpace=wrap;html=1;rounded=1;fillColor=#0050ef;fontColor=#ffffff;strokeColor=#001DBC;fontStyle=1;glass=0;sketch=0;fontSize=12;points=[[0,0.5,0,0,0],[0.5,0,0,0,0],[0.5,1,0,0,0],[1,0.5,0,0,0]];shadow=1;fontFamily=Helvetica;" parent="1" vertex="1">
          <mxGeometry x="480" y="292.5" width="80" height="80" as="geometry" />
        </mxCell>
        <mxCell id="yTE4_9pnOl3mThRp0SYr-3" value="&lt;b&gt;= &lt;i&gt;init&lt;/i&gt;&lt;/b&gt;&lt;br&gt;p.ok = max_hp&lt;br&gt;p.wallet = 0&lt;br&gt;p.pwr = 4&lt;br&gt;ndays = 0" style="rounded=1;whiteSpace=wrap;html=1;sketch=0;container=1;recursiveResize=0;verticalAlign=top;arcSize=6;fontStyle=0;autosize=0;points=[];absoluteArcSize=1;shadow=1;strokeColor=#d6b656;fillColor=#fff2cc;fontFamily=Helvetica;fontSize=11;" parent="1" vertex="1">
          <mxGeometry x="200" y="280" width="200" height="110" as="geometry">
            <mxRectangle x="-98" y="-1230" width="99" height="26" as="alternateBounds" />
          </mxGeometry>
        </mxCell>
        <mxCell id="yTE4_9pnOl3mThRp0SYr-4" value="" style="rounded=1;whiteSpace=wrap;html=1;sketch=0;points=[[0,0.5,0,0,0],[1,0.5,0,0,0]];arcSize=50;fontFamily=Helvetica;fontSize=11;fontColor=default;" parent="yTE4_9pnOl3mThRp0SYr-3" vertex="1">
          <mxGeometry x="-18.75" y="40" width="38.75" height="25" as="geometry" />
        </mxCell>
        <mxCell id="yTE4_9pnOl3mThRp0SYr-5" value="" style="rounded=1;whiteSpace=wrap;html=1;sketch=0;points=[[0,0.5,0,0,0],[1,0.5,0,0,0]];fillColor=#1ba1e2;fontColor=#ffffff;strokeColor=#006EAF;arcSize=50;fontFamily=Helvetica;fontSize=11;" parent="yTE4_9pnOl3mThRp0SYr-3" vertex="1">
          <mxGeometry x="180" y="40" width="36" height="25" as="geometry" />
        </mxCell>
        <mxCell id="yTE4_9pnOl3mThRp0SYr-15" style="edgeStyle=orthogonalEdgeStyle;rounded=0;orthogonalLoop=1;jettySize=auto;html=1;exitX=1;exitY=0.5;exitDx=0;exitDy=0;exitPerimeter=0;entryX=0;entryY=0.5;entryDx=0;entryDy=0;entryPerimeter=0;" parent="1" source="yTE4_9pnOl3mThRp0SYr-5" target="yTE4_9pnOl3mThRp0SYr-2" edge="1">
          <mxGeometry relative="1" as="geometry">
            <mxPoint x="461.25" y="332.5" as="targetPoint" />
          </mxGeometry>
        </mxCell>
        <mxCell id="yTE4_9pnOl3mThRp0SYr-19" style="edgeStyle=orthogonalEdgeStyle;rounded=1;orthogonalLoop=1;jettySize=auto;html=1;entryX=0;entryY=0.5;entryDx=0;entryDy=0;entryPerimeter=0;strokeWidth=2;curved=0;" parent="1" source="yTE4_9pnOl3mThRp0SYr-1" target="yTE4_9pnOl3mThRp0SYr-4" edge="1">
          <mxGeometry relative="1" as="geometry" />
        </mxCell>
      </root>
    </mxGraphModel>
  </diagram>
</mxfile>
